<svg xmlns="http://www.w3.org/2000/svg" width="867" height="564" fill="none" viewBox="0 0 867 564"><path fill="url(#paint0_linear)" d="M360.478 253.119C356.185 260.778 348.208 265.521 339.621 265.521L251.626 265.521C243.202 265.521 235.466 260.955 231.3 253.523L187.001 174.498C182.835 167.066 182.864 157.883 187.076 150.37L231.074 71.8816C235.367 64.2223 243.344 59.4792 251.931 59.4792L339.926 59.4792C348.35 59.4792 356.086 64.0453 360.251 71.4767L404.55 150.502C408.716 157.934 408.688 167.117 404.476 174.631L360.478 253.119Z"/><path fill="url(#paint1_linear)" d="M635.478 253.119C631.184 260.778 623.208 265.521 614.621 265.521L526.626 265.521C518.202 265.521 510.466 260.955 506.3 253.523L462.001 174.498C457.835 167.066 457.864 157.883 462.076 150.37L506.073 71.8816C510.367 64.2223 518.343 59.4792 526.93 59.4792L614.926 59.4792C623.35 59.4792 631.085 64.0453 635.251 71.4767L679.55 150.502C683.716 157.934 683.688 167.117 679.476 174.631L635.478 253.119Z"/><path fill="url(#paint2_linear)" d="M498.478 492.119C494.185 499.778 486.208 504.521 477.621 504.521L389.626 504.521C381.202 504.521 373.466 499.955 369.3 492.523L325.001 413.498C320.835 406.066 320.864 396.883 325.076 389.37L369.074 310.882C373.367 303.222 381.344 298.479 389.931 298.479L477.926 298.479C486.35 298.479 494.086 303.045 498.251 310.477L542.55 389.502C546.716 396.934 546.688 406.117 542.476 413.631L498.478 492.119Z"/><path fill="url(#paint3_linear)" d="M773.478 492.119C769.184 499.778 761.208 504.521 752.621 504.521L664.626 504.521C656.202 504.521 648.466 499.955 644.3 492.523L600.001 413.498C595.835 406.066 595.864 396.883 600.076 389.37L644.073 310.882C648.367 303.222 656.343 298.479 664.93 298.479L752.926 298.479C761.35 298.479 769.085 303.045 773.251 310.477L817.55 389.502C821.716 396.934 821.688 406.117 817.476 413.631L773.478 492.119Z"/><path fill="url(#paint4_linear)" d="M222.454 489.802C218.167 497.227 210.244 501.802 201.67 501.802L113.882 501.802C105.308 501.802 97.3849 497.227 93.0977 489.802L49.2041 413.776C44.917 406.35 44.917 397.201 49.2041 389.776L93.0977 313.75C97.3849 306.324 105.308 301.75 113.882 301.75L201.67 301.75C210.244 301.75 218.167 306.324 222.454 313.75L266.348 389.776C270.635 397.201 270.635 406.35 266.348 413.776L222.454 489.802Z"/><defs><linearGradient id="paint0_linear" x1="353.959" x2="145.523" y1="265.263" y2="211.037" gradientUnits="userSpaceOnUse"><stop stop-color="#1E1E1E" stop-opacity="0"/><stop offset="1" stop-color="#FBD702" stop-opacity=".5"/></linearGradient><linearGradient id="paint1_linear" x1="628.959" x2="420.523" y1="265.263" y2="211.037" gradientUnits="userSpaceOnUse"><stop stop-color="#1E1E1E" stop-opacity="0"/><stop offset="1" stop-color="#FBD702" stop-opacity=".5"/></linearGradient><linearGradient id="paint2_linear" x1="491.959" x2="283.523" y1="504.263" y2="450.037" gradientUnits="userSpaceOnUse"><stop stop-color="#1E1E1E" stop-opacity="0"/><stop offset="1" stop-color="#FBD702" stop-opacity=".5"/></linearGradient><linearGradient id="paint3_linear" x1="766.959" x2="558.523" y1="504.263" y2="450.037" gradientUnits="userSpaceOnUse"><stop stop-color="#1E1E1E" stop-opacity="0"/><stop offset="1" stop-color="#FBD702" stop-opacity=".5"/></linearGradient><linearGradient id="paint4_linear" x1="215.959" x2="8.323" y1="501.552" y2="445.916" gradientUnits="userSpaceOnUse"><stop stop-color="#1E1E1E" stop-opacity="0"/><stop offset="1" stop-color="#FBD702" stop-opacity=".5"/></linearGradient></defs></svg>