<?xml version="1.0" standalone="no"?>
<!DOCTYPE svg PUBLIC "-//W3C//DTD SVG 20010904//EN"
 "http://www.w3.org/TR/2001/REC-SVG-20010904/DTD/svg10.dtd">
<svg version="1.0" xmlns="http://www.w3.org/2000/svg"
 width="384.000000pt" height="384.000000pt" viewBox="0 0 384.000000 384.000000"
 preserveAspectRatio="xMidYMid meet">
<metadata>
Created by potrace 1.14, written by Peter Selinger 2001-2017
</metadata>
<g transform="translate(0.000000,384.000000) scale(0.100000,-0.100000)"
fill="#000000" stroke="none">
<path d="M1640 3823 c-850 -130 -1500 -784 -1624 -1634 -21 -139 -21 -400 0
-538 125 -856 780 -1511 1635 -1635 139 -21 400 -21 538 0 856 125 1511 780
1635 1635 21 139 21 400 0 538 -125 856 -780 1511 -1635 1635 -134 20 -419 19
-549 -1z m655 -1725 c136 -156 259 -291 273 -301 51 -34 95 -19 259 85 l148
94 307 -359 c290 -339 306 -360 297 -385 -6 -15 -31 -67 -55 -117 -148 -295
-407 -573 -690 -741 -516 -307 -1171 -331 -1709 -62 -348 173 -642 466 -820
817 l-25 49 311 284 c171 156 314 282 317 281 4 -1 73 -36 152 -79 156 -83
201 -94 250 -61 14 9 72 79 130 156 l105 139 92 3 c79 3 95 7 116 27 13 12 84
119 158 237 74 118 135 215 136 215 1 0 112 -127 248 -282z"/>
</g>
</svg>
